<svg width="129" height="67" viewBox="0 0 129 67" fill="none" xmlns="http://www.w3.org/2000/svg">
<path d="M64.9062 6.80469V2.09375C36.6406 2.09375 13.8187 24.9156 13.8187 52.9719H18.5297C18.5297 27.5328 39.2578 6.80469 64.9062 6.80469Z" fill="#FF6666"/>
<path d="M18.5297 52.9719H23.2406C23.2406 30.15 41.875 11.5156 64.9062 11.5156V6.80469C39.2578 6.80469 18.5297 27.5328 18.5297 52.9719Z" fill="#FFFB80"/>
<path d="M64.9062 16.2266V11.5156C41.875 11.5156 23.2406 30.0453 23.2406 52.9719H27.9515C27.9515 32.6625 44.4922 16.2266 64.9062 16.2266Z" fill="#A3E66F"/>
<path d="M27.9515 52.9719H32.6625C32.7672 35.2797 47.1094 20.9375 64.9062 20.9375V16.2266C44.4922 16.2266 27.9515 32.6625 27.9515 52.9719Z" fill="#66C2FF"/>
<path d="M64.9063 25.6484V20.9375C47.1094 20.9375 32.7672 35.2797 32.7672 52.9719H37.4781C37.4781 37.8969 49.7266 25.6484 64.9063 25.6484Z" fill="#9180FF"/>
<path d="M10.5735 63.5453C9.84065 63.5453 9.10784 63.4406 8.37502 63.2313C5.44377 62.2891 3.45471 59.5672 3.45471 56.5312C3.45471 54.5422 4.29221 52.5531 5.86252 51.1922L7.11877 50.25L7.53752 48.575C8.68909 44.4922 12.5625 41.6656 16.75 41.6656C17.1688 41.6656 17.5875 41.6656 18.111 41.7703C18.5297 41.875 18.8438 41.875 19.2625 41.9797L19.4719 41.6656C21.1469 38.6297 24.4969 36.6406 27.9516 36.6406C33.2907 36.6406 37.6875 41.0375 37.6875 46.3766V47.3188C38.1063 47.5281 38.525 47.6328 38.9438 47.8422C41.561 49.3078 43.1313 52.1344 43.1313 55.0656C43.1313 58.9391 40.4094 62.2891 36.6407 63.2313C36.0125 63.3359 35.3844 63.4406 34.7563 63.4406L10.5735 63.5453Z" fill="white"/>
<path d="M28.161 38.1062C32.7672 38.1062 36.536 41.7703 36.536 46.3765V47.0047C34.6516 47.1094 32.8719 47.9469 31.511 49.0984C32.5578 48.4703 33.7094 48.1562 34.9656 48.1562C35.3844 48.1562 35.9078 48.1562 36.3266 48.2609C37.0594 48.3656 37.7922 48.6797 38.4203 49.0984C40.5141 50.25 41.875 52.5531 41.875 55.0656C41.875 58.3109 39.5719 61.1375 36.4313 61.8703C35.9078 61.975 35.3844 62.0797 34.861 62.0797H10.5735C9.94533 62.0797 9.31721 61.975 8.79377 61.7656C6.49065 61.0328 4.92033 58.939 4.92033 56.4265C4.92033 54.7515 5.65315 53.1812 6.9094 52.1343C7.43283 51.6109 8.06096 51.2968 8.79377 51.0875C9.4219 50.8781 10.05 50.7734 10.6781 50.7734C12.4578 50.7734 14.1328 51.6109 15.1797 52.9718C13.9235 50.7734 11.725 49.2031 9.10783 48.9937C10.05 45.6437 13.1906 43.1312 16.9594 43.1312C17.3781 43.1312 17.7969 43.1312 18.111 43.2359C18.8438 43.3406 19.5766 43.55 20.3094 43.864C22.8219 45.0156 24.7063 47.3187 25.125 50.1453C25.125 46.9 23.45 44.1781 20.9375 42.5031C22.2985 39.7812 25.0203 38.1062 28.161 38.1062ZM28.161 35.2797C24.2875 35.2797 20.7281 37.2687 18.7391 40.4093H18.5297C17.9016 40.3047 17.4828 40.3047 16.9594 40.3047C12.0391 40.3047 7.7469 43.55 6.38596 48.2609L6.0719 49.4125C5.75783 49.6219 5.33908 49.9359 5.02502 50.1453C4.10506 50.9127 3.36547 51.8734 2.85884 52.959C2.35222 54.0446 2.091 55.2285 2.09377 56.4265C2.09377 60.0906 4.3969 63.3359 7.95627 64.4875C8.79377 64.8015 9.73596 64.9062 10.6781 64.9062H34.9656C35.6985 64.9062 36.4313 64.8015 37.1641 64.6968C41.6656 63.65 44.8063 59.7765 44.8063 55.1703C44.8063 51.7156 42.9219 48.4703 39.886 46.6906C39.7813 46.5859 39.5719 46.4812 39.4672 46.4812V46.3765C39.3625 40.2 34.3375 35.2797 28.161 35.2797Z" fill="#75D6FF"/>
<path d="M64.0938 6.80469V2.09375C92.3594 2.09375 115.181 24.9156 115.181 52.9719H110.47C110.47 27.5328 89.7422 6.80469 64.0938 6.80469Z" fill="#FF6666"/>
<path d="M110.47 52.9719H105.759C105.759 30.15 87.125 11.5156 64.0938 11.5156V6.80469C89.7422 6.80469 110.47 27.5328 110.47 52.9719Z" fill="#FFFB80"/>
<path d="M64.0938 16.2266V11.5156C87.125 11.5156 105.759 30.0453 105.759 52.9719H101.048C101.048 32.6625 84.5078 16.2266 64.0938 16.2266Z" fill="#A3E66F"/>
<path d="M101.048 52.9719H96.3375C96.2328 35.2797 81.8906 20.9375 64.0938 20.9375V16.2266C84.5078 16.2266 101.048 32.6625 101.048 52.9719Z" fill="#66C2FF"/>
<path d="M64.0937 25.6484V20.9375C81.8906 20.9375 96.2328 35.2797 96.2328 52.9719H91.5219C91.5219 37.8969 79.2734 25.6484 64.0937 25.6484Z" fill="#9180FF"/>
<path d="M118.427 63.5453C119.159 63.5453 119.892 63.4406 120.625 63.2313C123.556 62.2891 125.545 59.5672 125.545 56.5312C125.545 54.5422 124.708 52.5531 123.137 51.1922L121.881 50.25L121.462 48.575C120.311 44.4922 116.437 41.6656 112.25 41.6656C111.831 41.6656 111.412 41.6656 110.889 41.7703C110.47 41.875 110.156 41.875 109.737 41.9797L109.528 41.6656C107.853 38.6297 104.503 36.6406 101.048 36.6406C95.7093 36.6406 91.3125 41.0375 91.3125 46.3766V47.3188C90.8937 47.5281 90.475 47.6328 90.0562 47.8422C87.439 49.3078 85.8687 52.1344 85.8687 55.0656C85.8687 58.9391 88.5906 62.2891 92.3593 63.2313C92.9875 63.3359 93.6156 63.4406 94.2437 63.4406L118.427 63.5453Z" fill="white"/>
<path d="M100.839 38.1062C96.2328 38.1062 92.464 41.7703 92.464 46.3765V47.0047C94.3484 47.1094 96.1281 47.9469 97.489 49.0984C96.4422 48.4703 95.2906 48.1562 94.0344 48.1562C93.6156 48.1562 93.0922 48.1562 92.6734 48.2609C91.9406 48.3656 91.2078 48.6797 90.5797 49.0984C88.4859 50.25 87.125 52.5531 87.125 55.0656C87.125 58.3109 89.4281 61.1375 92.5687 61.8703C93.0922 61.975 93.6156 62.0797 94.139 62.0797H118.427C119.055 62.0797 119.683 61.975 120.206 61.7656C122.509 61.0328 124.08 58.939 124.08 56.4265C124.08 54.7515 123.347 53.1812 122.091 52.1343C121.567 51.6109 120.939 51.2968 120.206 51.0875C119.578 50.8781 118.95 50.7734 118.322 50.7734C116.542 50.7734 114.867 51.6109 113.82 52.9718C115.077 50.7734 117.275 49.2031 119.892 48.9937C118.95 45.6437 115.809 43.1312 112.041 43.1312C111.622 43.1312 111.203 43.1312 110.889 43.2359C110.156 43.3406 109.423 43.55 108.691 43.864C106.178 45.0156 104.294 47.3187 103.875 50.1453C103.875 46.9 105.55 44.1781 108.062 42.5031C106.702 39.7812 103.98 38.1062 100.839 38.1062ZM100.839 35.2797C104.712 35.2797 108.272 37.2687 110.261 40.4093H110.47C111.098 40.3047 111.517 40.3047 112.041 40.3047C116.961 40.3047 121.253 43.55 122.614 48.2609L122.928 49.4125C123.242 49.6219 123.661 49.9359 123.975 50.1453C124.895 50.9127 125.635 51.8734 126.141 52.959C126.648 54.0446 126.909 55.2285 126.906 56.4265C126.906 60.0906 124.603 63.3359 121.044 64.4875C120.206 64.8015 119.264 64.9062 118.322 64.9062H94.0344C93.3015 64.9062 92.5687 64.8015 91.8359 64.6968C87.3344 63.65 84.1937 59.7765 84.1937 55.1703C84.1937 51.7156 86.0781 48.4703 89.114 46.6906C89.2187 46.5859 89.4281 46.4812 89.5328 46.4812V46.3765C89.6375 40.2 94.6625 35.2797 100.839 35.2797Z" fill="#75D6FF"/>
</svg>
